<?xml version="1.0" encoding="utf-8"?>
<!-- Generator: Adobe Illustrator 28.0.0, SVG Export Plug-In . SVG Version: 6.00 Build 0)  -->
<svg version="1.1" id="Layer_1" xmlns="http://www.w3.org/2000/svg" xmlns:xlink="http://www.w3.org/1999/xlink" x="0px" y="0px"
	 viewBox="0 0 250 35" style="enable-background:new 0 0 250 35;" xml:space="preserve">
<style type="text/css">
	.st0{fill:#D4AF37;}
	.st1{fill:none;}
</style>
<g>
	<path class="st0" d="M11.02,25.9c-2.41,2.59-6.43,5.98-7.76,3.53C0.66,21.2,9.15,5.42,14.75,4.27c1.33,0-0.31,3.65-2.22,6.71
		C10.68,13.93,8,16.17,8,16.17s-0.8,2.37,0.53,2.97s2.74,0,2.74,0S21.49,5.71,15.93,2.01S-2.75,15.13,0.51,28.92
		c2.2,9.3,12.95,2.67,14.08-3.85C14.85,23.62,13.43,23.31,11.02,25.9z"/>
	<path class="st0" d="M23.97,19.19c0,0-4.89-0.56-7.06,4.45c-0.88,2.02,1.18,1.27,2.89-0.33c1.17-1.1,2-2.78,2-2.78
		s0.95-1,1.61-0.28c0.33,0.36-0.26,3.77,0.5,4.34c0.76,0.56,3.24-2.52,3.24-2.52s0.85-0.15,0.37,1.24
		c-0.24,0.68-1.99,3.57-4.45,3.84c-3.06,0.33-2-2.78-2-2.78s-5.6,6.11-6.39,2.33c-0.7-3.34,2.67-8.06,6.42-8.84s4.25,0.11,4.31,0.44
		c0.06,0.33,0.11,0.72-0.44,0.95C24.42,19.46,23.97,19.19,23.97,19.19z"/>
	<path class="st0" d="M76.52,19.68c0,0-4.89-0.56-7.06,4.45c-0.88,2.02,1.18,1.27,2.89-0.33c1.17-1.1,2-2.78,2-2.78
		s0.95-1,1.61-0.28c0.33,0.36-0.26,3.77,0.5,4.34c0.76,0.56,3.24-2.52,3.24-2.52s0.85-0.15,0.37,1.24
		c-0.24,0.68-1.99,3.57-4.45,3.84c-3.06,0.33-2-2.78-2-2.78s-5.6,6.11-6.39,2.33c-0.7-3.34,2.67-8.06,6.42-8.84s4.25,0.11,4.31,0.44
		s0.11,0.72-0.44,0.95C76.96,19.96,76.52,19.68,76.52,19.68z"/>
	<path class="st0" d="M28.01,16.98c0,0,0.29,1.8,0,4.15c-0.33,2.74-1.85,5.41-1.85,5.41s0.07,1.42,0.93,1.38s3.67-6.89,4.41-5.47
		c0.74,1.42-0.44,4.68,2.59,4.17s3.56-1.48,3.56-1.48s0.22-1.63-0.44-1.26c-0.19,0.11-2.32,2.01-2.89,0.96
		c-0.63-1.15,1.7-4.97-0.67-5.93c-1.29-0.53-2.97,0.96-2.97,0.96s0.74-3.41-1.19-3.26C27.57,16.76,28.01,16.98,28.01,16.98z"/>
	<path class="st0" d="M49.05,22.26c-1.39,1.08-1.98,2.94-3.47,2.94c-3.73,0,10.33-15.1,7.04-17.57c-2.67-2-6.6,9.49-6.6,9.49
		s-4.15-2.24-7.41,3.41c-3.04,5.26,1.56,7.34,2.3,7.04c1.26-0.52,2.08-1.83,2.08-1.83s0.67,2.22,2.56,1.93
		c1.89-0.29,2.61-2.32,3.56-3.32c0.95-1,1.33-0.39,1.33-0.39l0.72-2.11C51.16,21.86,50.44,21.19,49.05,22.26z M42.65,22.73
		c-2.28,3.68-2.67,3.03-2.67,3.03s-0.78-2,0.89-4.69c1.61-2.59,3.72-2,3.72-2S44.93,19.05,42.65,22.73z"/>
	<path class="st1" d="M57.16,19.02c0.01-0.73-1.75,0.23-2.84,1.22c-1.09,0.99-1.5,2.02-1.5,2.02S57.13,22.59,57.16,19.02z"/>
	<path class="st0" d="M66.93,23.95c-0.53-0.14-0.84,1.01-1.7,1.86c-1.45,1.42-3.75,2.18-1.7-2.38c3.21-7.13,8.21-10.53,7.76-16.53
		c-0.28-3.76-4.39,1.11-6.56,6.89c-3.16,8.42-5.73,11.25-9.51,12.02c-3.78,0.77-3.19-2.16-3.19-2.16s2.27,0.96,4.3,0.07
		c2.31-1.01,4-4.37,2.37-5.78c-4.58-3.95-11.71,5.71-7.49,9.34c4.23,3.63,9.04-2.67,9.04-2.67s-0.67,3.8,2.52,3.8s4.15-2.6,4.15-2.6
		S67.8,24.18,66.93,23.95z M66.69,12.9c0.43-0.92,1.6-2.49,1.6-2.49s-0.24,1.24-1.12,3.01C66.28,15.19,65,17.17,65,17.17
		S65.92,14.56,66.69,12.9z M54.33,20.24c1.09-0.99,2.84-1.96,2.84-1.22c-0.03,3.57-4.34,3.25-4.34,3.25S53.24,21.24,54.33,20.24z"/>
	<path class="st0" d="M87.35,17.56c-0.72-1.2-2.26-1.54-2.26-1.54s3.38-7.95-2.65-6.34c-2.34,0.63-4.38,3.27-3.43,5.67
		c0.64,1.64,3.36,1.64,3.36,1.64s-0.82,1.97-2.14,4.69c-1.32,2.72-3.21,4.84-3.21,4.84s0.61,0.61,1.39,0.22
		c0.38-0.19,1.95-1.98,3.22-4.17c1.35-2.31,2.39-5.02,2.39-5.02l1.45,0.24c0,0-4.78,9.34-3.45,12.12c1.33,2.78,2.93,2,2.93,2
		l2.04-1.96c0,0-1.56-0.19-1.56-2.41c0-2.22,2.26-7.03,2.26-7.03S88.07,18.76,87.35,17.56z M82.9,15.46c0,0-1.39,0.22-1.95-0.67
		c-0.56-0.89,1.11-3,2.45-3.34C84.74,11.13,82.9,15.46,82.9,15.46z"/>
	<path class="st0" d="M95.62,22.73c0,0,0.04-0.96-0.59-0.63c-0.63,0.33-2.37,3.97-3.78,3.34c-1.41-0.63,2.67-5.19,2.67-5.19
		s0.48-1.75-0.33-2.21s-1.89-0.09-2.22,0.36c-0.33,0.44-4.57,7.47-2.06,8.8C92.97,29.14,95.62,22.73,95.62,22.73z"/>
	<path class="st0" d="M93.65,17c0,0-0.26-1.91,0.22-3.17c0.7-1.83,3.05-1.7,3.06-0.33C96.95,17,93.65,17,93.65,17z"/>
	<path class="st0" d="M105.44,21.24c-0.86,0.15-1.19,0.15-1.19,0.15v-0.65c0,0,0.19-2.35-1.83-3.39c-0.78-0.4-5.41-0.83-7.39,4.74
		c-1.98,5.58,0.56,6.54,2.22,6.6c0.85,0.03,3.01-0.62,4.5-2.11c1.43-1.43,2.22-3.71,2.22-3.71s0.39,0.15,2.06-0.41
		c1.67-0.56,2.08-0.96,2.08-0.96v-1.11C108.11,20.39,106.5,21.06,105.44,21.24z M97.1,27.27c-0.2,0.04-0.26-1.67-0.04-2.91
		c0.24-1.32,0.78-2.63,0.78-2.63s0.57,0.86,1.69,1.12c0.83,0.19,2.02,0.08,2.02,0.08S99.77,26.8,97.1,27.27z M102.07,21.26
		c0,0-1.19-0.05-1.52-0.27c-0.33-0.22,0.33-1.26,0.33-1.26l-1-0.41h-0.3c0,0,1.15-0.96,2.3-0.59
		C103.03,19.09,102.07,21.26,102.07,21.26z"/>
	<path class="st0" d="M152.91,25.9c-2.41,2.59-6.43,5.98-7.76,3.53c-2.6-8.24,5.89-24.02,11.49-25.17c1.33,0-0.31,3.65-2.22,6.71
		c-1.85,2.95-4.52,5.19-4.52,5.19s-0.8,2.37,0.53,2.97c1.33,0.59,2.74,0,2.74,0s10.23-13.42,4.67-17.12
		c-5.56-3.71-18.68,13.12-15.42,26.91c2.2,9.3,12.95,2.67,14.08-3.85C156.74,23.62,155.32,23.31,152.91,25.9z"/>
	<path class="st0" d="M165.87,19.19c0,0-4.89-0.56-7.06,4.45c-0.88,2.02,1.18,1.27,2.89-0.33c1.17-1.1,2-2.78,2-2.78
		s0.95-1,1.61-0.28c0.33,0.36-0.26,3.77,0.5,4.34c0.76,0.56,3.24-2.52,3.24-2.52s0.85-0.15,0.37,1.24
		c-0.24,0.68-1.99,3.57-4.45,3.84c-3.06,0.33-2-2.78-2-2.78s-5.6,6.11-6.39,2.33c-0.7-3.34,2.67-8.06,6.42-8.84s4.25,0.11,4.31,0.44
		c0.06,0.33,0.11,0.72-0.44,0.95C166.31,19.46,165.87,19.19,165.87,19.19z"/>
	<path class="st0" d="M218.41,19.68c0,0-4.89-0.56-7.06,4.45c-0.88,2.02,1.18,1.27,2.89-0.33c1.17-1.1,2-2.78,2-2.78
		s0.95-1,1.61-0.28c0.33,0.36-0.26,3.77,0.5,4.34c0.76,0.56,3.24-2.52,3.24-2.52s0.85-0.15,0.37,1.24
		c-0.24,0.68-1.99,3.57-4.45,3.84c-3.06,0.33-2-2.78-2-2.78s-5.6,6.11-6.39,2.33c-0.7-3.34,2.67-8.06,6.42-8.84s4.25,0.11,4.31,0.44
		s0.11,0.72-0.44,0.95C218.86,19.96,218.41,19.68,218.41,19.68z"/>
	<path class="st0" d="M169.91,16.98c0,0,0.29,1.8,0,4.15c-0.33,2.74-1.85,5.41-1.85,5.41s0.07,1.42,0.93,1.38
		c0.85-0.04,3.67-6.89,4.41-5.47c0.74,1.42-0.44,4.68,2.59,4.17s3.56-1.48,3.56-1.48s0.22-1.63-0.44-1.26
		c-0.19,0.11-2.32,2.01-2.89,0.96c-0.63-1.15,1.7-4.97-0.67-5.93c-1.29-0.53-2.96,0.96-2.96,0.96s0.74-3.41-1.19-3.26
		C169.46,16.76,169.91,16.98,169.91,16.98z"/>
	<path class="st0" d="M190.94,22.26c-1.39,1.08-1.98,2.94-3.47,2.94c-3.73,0,10.33-15.1,7.04-17.57c-2.67-2-6.6,9.49-6.6,9.49
		s-4.15-2.24-7.41,3.41c-3.04,5.26,1.56,7.34,2.3,7.04c1.26-0.52,2.08-1.83,2.08-1.83s0.67,2.22,2.56,1.93
		c1.89-0.29,2.61-2.32,3.56-3.32c0.95-1,1.33-0.39,1.33-0.39l0.72-2.11C193.05,21.86,192.33,21.19,190.94,22.26z M184.55,22.73
		c-2.28,3.68-2.67,3.03-2.67,3.03s-0.78-2,0.89-4.69c1.61-2.59,3.72-2,3.72-2S186.83,19.05,184.55,22.73z"/>
	<path class="st1" d="M199.06,19.02c0.01-0.73-1.75,0.23-2.84,1.22c-1.09,0.99-1.5,2.02-1.5,2.02S199.03,22.59,199.06,19.02z"/>
	<path class="st0" d="M208.82,23.95c-0.53-0.14-0.84,1.01-1.7,1.86c-1.45,1.42-3.75,2.18-1.7-2.38c3.21-7.13,8.21-10.53,7.76-16.53
		c-0.28-3.76-4.39,1.11-6.56,6.89c-3.16,8.42-5.73,11.25-9.51,12.02c-3.78,0.77-3.19-2.16-3.19-2.16s2.27,0.96,4.3,0.07
		c2.31-1.01,4-4.37,2.37-5.78c-4.58-3.95-11.71,5.71-7.49,9.34c4.23,3.63,9.04-2.67,9.04-2.67s-0.67,3.8,2.52,3.8
		c3.19,0,4.15-2.6,4.15-2.6S209.7,24.18,208.82,23.95z M208.58,12.9c0.43-0.92,1.6-2.49,1.6-2.49s-0.24,1.24-1.12,3.01
		c-0.88,1.77-2.16,3.75-2.16,3.75S207.81,14.56,208.58,12.9z M196.22,20.24c1.09-0.99,2.84-1.96,2.84-1.22
		c-0.03,3.57-4.34,3.25-4.34,3.25S195.14,21.24,196.22,20.24z"/>
	<path class="st0" d="M229.24,17.56c-0.72-1.2-2.26-1.54-2.26-1.54s3.38-7.95-2.65-6.34c-2.34,0.63-4.38,3.27-3.43,5.67
		c0.64,1.64,3.36,1.64,3.36,1.64s-0.82,1.97-2.14,4.69c-1.32,2.72-3.21,4.84-3.21,4.84s0.61,0.61,1.39,0.22
		c0.38-0.19,1.95-1.98,3.22-4.17c1.35-2.31,2.39-5.02,2.39-5.02l1.45,0.24c0,0-4.78,9.34-3.45,12.12c1.33,2.78,2.93,2,2.93,2
		l2.04-1.96c0,0-1.56-0.19-1.56-2.41c0-2.22,2.26-7.03,2.26-7.03S229.97,18.76,229.24,17.56z M224.8,15.46c0,0-1.39,0.22-1.95-0.67
		c-0.56-0.89,1.11-3,2.45-3.34C226.63,11.13,224.8,15.46,224.8,15.46z"/>
	<path class="st0" d="M237.51,22.73c0,0,0.04-0.96-0.59-0.63s-2.37,3.97-3.78,3.34c-1.41-0.63,2.67-5.19,2.67-5.19
		s0.48-1.75-0.33-2.21c-0.82-0.46-1.89-0.09-2.22,0.36c-0.33,0.44-4.57,7.47-2.06,8.8C234.86,29.14,237.51,22.73,237.51,22.73z"/>
	<path class="st0" d="M235.55,17c0,0-0.26-1.91,0.22-3.17c0.7-1.83,3.05-1.7,3.06-0.33C238.84,17,235.55,17,235.55,17z"/>
	<path class="st0" d="M247.33,21.24c-0.86,0.15-1.19,0.15-1.19,0.15v-0.65c0,0,0.19-2.35-1.83-3.39c-0.78-0.4-5.41-0.83-7.39,4.74
		c-1.98,5.58,0.56,6.54,2.22,6.6c0.85,0.03,3.01-0.62,4.5-2.11c1.43-1.43,2.22-3.71,2.22-3.71s0.39,0.15,2.06-0.41
		c1.67-0.56,2.08-0.96,2.08-0.96v-1.11C250,20.39,248.39,21.06,247.33,21.24z M238.99,27.27c-0.2,0.04-0.26-1.67-0.04-2.91
		c0.24-1.32,0.78-2.63,0.78-2.63s0.57,0.86,1.69,1.12c0.83,0.19,2.02,0.08,2.02,0.08S241.66,26.8,238.99,27.27z M243.96,21.26
		c0,0-1.19-0.05-1.52-0.27c-0.33-0.22,0.33-1.26,0.33-1.26l-1-0.41h-0.3c0,0,1.15-0.96,2.3-0.59
		C244.92,19.09,243.96,21.26,243.96,21.26z"/>
	<path class="st0" d="M130.83,20.63c0,0-9.13,7.72-10.71,8.25c-1.58,0.53-3.08,0.82-4.63,0.2c-1.56-0.61-1.88-2.94-0.44-5
		c1.97-2.84,11.61-7.22,12.84-9.9c1.51-3.29-2.86-2.9-4.34-1.72c-1.89,1.5-3.17,3.27,0.17,8.11s6.17,5.78,6.17,5.78
		s-0.67,2-1.17,2.34c-0.5,0.33-3.67-1.43-6.67-6.39c-2.89-4.79-2.74-9.12,0.6-11.79c3.34-2.67,9.24-0.28,7.18,4.67
		c-2.06,4.95-14.95,10.23-12.68,11.73c2.28,1.5,13.68-7.28,13.68-7.28V20.63z"/>
</g>
</svg>
