<?xml version="1.0" encoding="utf-8"?>
<!-- Generator: Adobe Illustrator 28.0.0, SVG Export Plug-In . SVG Version: 6.00 Build 0)  -->
<svg version="1.1" id="Layer_1" xmlns="http://www.w3.org/2000/svg" xmlns:xlink="http://www.w3.org/1999/xlink" x="0px" y="0px"
	 viewBox="0 0 100 100" style="enable-background:new 0 0 100 100;" xml:space="preserve">
<style type="text/css">
	.st0{fill:#D4AF37;}
</style>
<g>
	<polygon class="st0" points="27.89,79.88 13.06,71.47 13.06,34.9 7.56,34.94 7.56,74.76 27.89,86.29 33.39,89.41 33.39,49.42 
		27.89,49.88 	"/>
	<polygon class="st0" points="50,0 7.56,24.95 7.56,31.54 13.06,31.49 13.06,28.12 50,6.41 86.94,28.12 86.94,31.49 92.44,31.54 
		92.44,24.95 	"/>
	<polygon class="st0" points="46.45,39.23 46.45,97.28 50,100 53.55,97.28 53.55,39.23 50,37.15 	"/>
	<polygon class="st0" points="86.94,71.47 72.11,79.88 72.11,49.88 66.61,49.42 66.61,89.41 72.11,86.29 92.44,74.76 92.44,34.94 
		86.94,34.9 	"/>
</g>
</svg>
