<?xml version="1.0" standalone="no"?>
<!DOCTYPE svg PUBLIC "-//W3C//DTD SVG 20010904//EN"
 "http://www.w3.org/TR/2001/REC-SVG-20010904/DTD/svg10.dtd">
<svg version="1.0" xmlns="http://www.w3.org/2000/svg"
 width="700.000000pt" height="700.000000pt" viewBox="0 0 700.000000 700.000000"
 preserveAspectRatio="xMidYMid meet">
<metadata>
Created by potrace 1.14, written by Peter Selinger 2001-2017
</metadata>
<g transform="translate(0.000000,700.000000) scale(0.100000,-0.100000)"
fill="#000000" stroke="none">
<path d="M3325 6898 c-418 -248 -949 -558 -956 -558 -5 0 -9 -4 -9 -10 0 -5
-4 -10 -9 -10 -5 0 -31 -13 -58 -29 -26 -16 -90 -54 -141 -85 -52 -31 -96 -56
-98 -56 -2 0 -23 -11 -45 -26 -22 -14 -55 -33 -72 -43 -18 -10 -81 -47 -142
-83 -327 -193 -583 -343 -605 -355 -14 -8 -76 -45 -138 -81 -62 -37 -204 -121
-317 -187 l-205 -120 0 -231 0 -232 190 1 c119 1 190 6 191 12 1 5 2 59 3 118
l1 108 194 115 c107 63 198 114 202 114 5 0 9 5 9 10 0 6 4 10 9 10 4 0 143
79 307 176 164 97 317 186 339 198 22 13 126 74 230 136 105 62 206 121 225
132 32 19 338 199 685 403 77 45 195 115 263 154 l122 73 123 -73 c67 -39 145
-85 172 -102 28 -16 65 -38 83 -49 17 -10 47 -26 65 -37 29 -16 610 -358 1567
-921 190 -112 397 -233 460 -271 l115 -67 1 -104 c1 -56 2 -110 3 -118 1 -13
29 -15 191 -16 l190 -2 0 234 c0 213 -2 235 -17 241 -10 4 -139 78 -287 166
-148 87 -283 167 -300 177 -17 9 -94 54 -171 100 -77 45 -153 90 -170 100 -16
9 -158 93 -315 185 -157 92 -359 212 -450 265 -91 53 -255 150 -365 215 -110
65 -216 127 -235 138 -19 10 -175 102 -347 203 -172 101 -314 184 -315 183 -2
0 -79 -46 -173 -101z"/>
<path d="M534 4551 c-2 -2 -4 -630 -4 -1395 l1 -1391 291 -165 c160 -91 312
-176 337 -190 25 -14 62 -35 81 -46 19 -12 58 -34 85 -49 28 -15 115 -65 195
-110 80 -45 163 -93 185 -105 60 -33 416 -236 523 -297 52 -29 97 -53 101 -53
5 0 8 628 8 1396 l0 1395 -56 -5 c-31 -3 -92 -9 -136 -12 -44 -4 -91 -8 -105
-9 -14 -2 -39 -3 -57 -4 l-31 -1 -1 -1047 c0 -575 -2 -1047 -3 -1048 -4 -4
-999 562 -1018 578 -14 11 -15 158 -15 1288 l0 1275 -188 0 c-104 -1 -191 -3
-193 -5z"/>
<path d="M6089 4546 c-1 -6 -2 -582 -3 -1280 l-1 -1269 -165 -94 c-91 -52
-194 -111 -230 -131 -36 -20 -102 -57 -148 -84 -46 -26 -85 -48 -86 -48 -1 0
-92 -51 -201 -114 -110 -62 -201 -112 -203 -111 -2 2 -3 474 -3 1049 l0 1046
-22 1 c-27 1 -70 5 -162 13 -38 4 -100 8 -136 11 l-66 5 0 -1399 0 -1398 41
23 c23 12 57 31 76 42 29 16 189 107 380 215 19 11 55 31 80 45 25 14 59 33
75 42 160 91 278 158 431 246 99 56 207 117 240 135 32 18 88 50 123 71 34 21
65 38 68 38 4 0 125 69 173 99 14 8 27 16 30 16 3 0 24 12 47 25 l43 25 -3
1395 -2 1394 -187 2 c-132 1 -188 -2 -189 -10z"/>
<path d="M3399 4342 c-52 -32 -107 -65 -122 -75 l-27 -17 2 -2032 3 -2031 123
-93 123 -94 122 94 122 93 2 2034 3 2034 -125 73 c-68 39 -126 72 -127 71 -2
0 -46 -26 -99 -57z"/>
</g>
</svg>
